<svg width="73" height="24" viewBox="0 0 73 24" fill="none" xmlns="http://www.w3.org/2000/svg">
<path d="M36.4456 9.6034V16.4235H34.7932V15.1615C34.3391 16.0453 33.5571 16.4873 32.4471 16.4873C31.6902 16.4873 31.0932 16.2535 30.6559 15.7861C30.2186 15.3187 30 14.6813 30 13.8739V9.6034H31.6524V13.3895C31.6524 13.8654 31.7806 14.2394 32.0371 14.5113C32.2936 14.7833 32.6489 14.9193 33.103 14.9193C33.6243 14.9108 34.0364 14.7238 34.3391 14.3584C34.6418 13.9929 34.7932 13.5297 34.7932 12.9688V9.6034H36.4456ZM42.2226 7.5C43.1056 7.5 43.8961 7.68909 44.594 8.06728C45.292 8.44547 45.8386 8.9745 46.2338 9.65439C46.629 10.3343 46.8266 11.1034 46.8266 11.9618C46.8266 12.8201 46.6269 13.5871 46.2275 14.2627C45.8281 14.9384 45.2752 15.4674 44.5688 15.8499C43.8624 16.2323 43.0594 16.4235 42.1596 16.4235H38.5521V7.5H42.2226ZM42.2605 14.9193C42.7987 14.9193 43.2843 14.7939 43.7174 14.5432C44.1504 14.2925 44.4889 13.9441 44.7328 13.4979C44.9766 13.0517 45.0986 12.5439 45.0986 11.9745C45.0986 11.4051 44.9724 10.8931 44.7202 10.4384C44.4679 9.98371 44.121 9.63102 43.6795 9.38031C43.238 9.1296 42.744 9.00425 42.1974 9.00425H40.2423V14.9193H42.2605ZM52.2253 16.4235V15.5949C51.9898 15.8924 51.6871 16.1176 51.3171 16.2705C50.9471 16.4235 50.5224 16.5 50.0431 16.5C49.5722 16.5 49.1581 16.4086 48.8007 16.2259C48.4433 16.0432 48.1679 15.7904 47.9745 15.4674C47.7811 15.1445 47.6844 14.7833 47.6844 14.3839C47.6844 13.7465 47.9072 13.2472 48.3529 12.886C48.7986 12.5248 49.4293 12.3399 50.2449 12.3314H52.2127V12.153C52.2127 11.7535 52.0823 11.4433 51.8216 11.2224C51.561 11.0014 51.1826 10.8909 50.6864 10.8909C50.0473 10.8909 49.3788 11.1034 48.6808 11.5283L48.088 10.381C48.6178 10.0836 49.0992 9.86898 49.5323 9.73725C49.9653 9.60552 50.472 9.53966 51.0522 9.53966C51.9268 9.53966 52.6058 9.75212 53.0893 10.1771C53.5728 10.602 53.8188 11.1969 53.8272 11.9618L53.8398 16.4235H52.2253ZM50.4341 15.2252C50.9051 15.2252 51.3087 15.1126 51.6451 14.8874C51.9814 14.6622 52.1706 14.3839 52.2127 14.0524V13.4405H50.5098C50.0726 13.4405 49.7509 13.5064 49.5449 13.6381C49.3389 13.7698 49.2358 13.9844 49.2358 14.2819C49.2358 14.5708 49.3431 14.8003 49.5575 14.9703C49.7719 15.1402 50.0641 15.2252 50.4341 15.2252ZM59.6295 16.0028C59.0913 16.3343 58.5279 16.5 57.9393 16.5C57.359 16.5 56.8839 16.3279 56.5139 15.9837C56.1439 15.6395 55.9589 15.1317 55.9589 14.4603V11.0949H55.0129L55.0003 9.88385H55.9589V8.00991H57.5861V9.88385H59.516V11.0949H57.5861V14.1671C57.5861 14.4816 57.645 14.7047 57.7627 14.8364C57.8804 14.9681 58.057 15.034 58.2925 15.034C58.5447 15.034 58.8643 14.9405 59.2511 14.7535L59.6295 16.0028ZM63.6659 9.55241C64.7423 9.55241 65.5516 9.8626 66.094 10.483C66.6364 11.1034 66.9076 11.9745 66.9076 13.0963C66.9076 13.3173 66.9034 13.483 66.895 13.5935H61.9126C62.0219 14.0779 62.2468 14.4582 62.5874 14.7344C62.928 15.0106 63.3463 15.1487 63.8425 15.1487C64.1873 15.1487 64.5173 15.0829 64.8327 14.9511C65.148 14.8194 65.4234 14.6303 65.6588 14.3839L66.5418 15.3144C66.2054 15.6884 65.7955 15.9773 65.312 16.1813C64.8284 16.3853 64.2924 16.4873 63.7037 16.4873C63.0142 16.4873 62.4066 16.3428 61.8811 16.0538C61.3555 15.7649 60.9497 15.3591 60.6638 14.8364C60.3779 14.3137 60.235 13.7125 60.235 13.0326C60.235 12.3527 60.38 11.7493 60.6701 11.2224C60.9603 10.6955 61.366 10.2854 61.8874 9.99221C62.4087 9.69901 63.0016 9.55241 63.6659 9.55241ZM65.4066 12.4844C65.3898 11.983 65.2258 11.5836 64.9146 11.2861C64.6035 10.9887 64.1915 10.8399 63.6785 10.8399C63.1992 10.8399 62.7976 10.9865 62.4739 11.2797C62.1501 11.5729 61.9504 11.9745 61.8747 12.4844H65.4066ZM72.3189 11.4518C71.9909 11.2564 71.6524 11.1034 71.3035 10.9929C70.9545 10.8824 70.6328 10.8272 70.3385 10.8272C70.061 10.8272 69.8403 10.8761 69.6763 10.9738C69.5123 11.0715 69.4303 11.2224 69.4303 11.4263C69.4303 11.6388 69.5333 11.8024 69.7394 11.9171C69.9454 12.0319 70.2712 12.153 70.7169 12.2805C71.1878 12.4249 71.5746 12.5673 71.8774 12.7075C72.1801 12.8477 72.4429 13.0559 72.6657 13.3322C72.8886 13.6084 73 13.9717 73 14.4221C73 15.085 72.7477 15.5949 72.2432 15.9518C71.7386 16.3088 71.1038 16.4873 70.3385 16.4873C69.8172 16.4873 69.3084 16.4044 68.8123 16.2387C68.3161 16.0729 67.8957 15.8371 67.5509 15.5312L68.1185 14.3711C68.4212 14.6346 68.7828 14.8407 69.2033 14.9894C69.6237 15.1381 70.0232 15.2125 70.4016 15.2125C70.7043 15.2125 70.9461 15.1593 71.1269 15.0531C71.3077 14.9469 71.3981 14.7875 71.3981 14.5751C71.3981 14.3371 71.2929 14.1586 71.0827 14.0397C70.8725 13.9207 70.5319 13.789 70.061 13.6445C69.6069 13.5085 69.2369 13.3746 68.951 13.2429C68.6651 13.1112 68.417 12.9115 68.2068 12.6438C67.9966 12.3761 67.8915 12.0255 67.8915 11.5921C67.8915 10.9207 68.1332 10.4086 68.6167 10.0559C69.1003 9.70326 69.7078 9.52691 70.4394 9.52691C70.8851 9.52691 71.3245 9.59065 71.7576 9.71813C72.1906 9.84561 72.5753 10.0241 72.9117 10.2535L72.3189 11.4518Z" fill="black"/>
<path d="M12 0C18.6274 0 24 5.37243 24 12C24 18.6276 18.6274 24 12 24C5.37258 24 0 18.6276 0 12C0 5.37243 5.37258 0 12 0Z" fill="#F31D34"/>
<path fill-rule="evenodd" clip-rule="evenodd" d="M8.21063 13.847L5.25 10.8987L9.03937 7.125L12 10.0734L14.9606 7.125L18.75 10.8987L15.7894 13.847L15.7937 13.8513L12.0043 17.625L12 17.6207L11.9957 17.625L8.20633 13.8513L8.21063 13.847Z" fill="white"/>
</svg>
