<svg width="24" height="24" viewBox="0 0 24 24" fill="none" xmlns="http://www.w3.org/2000/svg">
<path fill-rule="evenodd" clip-rule="evenodd" d="M19.9999 12.3488C19.9999 11.77 19.948 11.2134 19.8515 10.6791H12.1632V13.8368H16.5565C16.3673 14.8572 15.7921 15.7217 14.9276 16.3006V18.3488H17.5658C19.1094 16.9277 19.9999 14.8349 19.9999 12.3488Z" fill="#4285F4"/>
<path fill-rule="evenodd" clip-rule="evenodd" d="M12.1634 20.3266C14.3674 20.3266 16.2153 19.5956 17.566 18.3488L14.9277 16.3006C14.1968 16.7904 13.2617 17.0798 12.1634 17.0798C10.0372 17.0798 8.2376 15.6438 7.59567 13.7144H4.86841V15.8294C6.21163 18.4973 8.97229 20.3266 12.1634 20.3266Z" fill="#34A853"/>
<path fill-rule="evenodd" clip-rule="evenodd" d="M7.59553 13.7142C7.43227 13.2244 7.33951 12.7013 7.33951 12.1632C7.33951 11.6252 7.43227 11.102 7.59553 10.6122V8.49719H4.86827C4.3154 9.59923 4 10.846 4 12.1632C4 13.4805 4.3154 14.7272 4.86827 15.8293L7.59553 13.7142Z" fill="#FBBC05"/>
<path fill-rule="evenodd" clip-rule="evenodd" d="M12.1634 7.24674C13.3619 7.24674 14.4379 7.65861 15.284 8.46752L17.6253 6.12615C16.2116 4.8089 14.3637 4 12.1634 4C8.97229 4 6.21163 5.82931 4.86841 8.4972L7.59567 10.6122C8.2376 8.68273 10.0372 7.24674 12.1634 7.24674Z" fill="#EA4335"/>
</svg>
