<svg width="18" height="12" viewBox="0 0 18 12" fill="none" xmlns="http://www.w3.org/2000/svg">
<path fill-rule="evenodd" clip-rule="evenodd" d="M0.026886 3.67614H17.9671V2.75769H0.026886V3.67614Z" fill="#F2F2F2"/>
<path fill-rule="evenodd" clip-rule="evenodd" d="M0.026886 11.024H17.9671V10.1055H0.026886V11.024Z" fill="#F2F2F2"/>
<path fill-rule="evenodd" clip-rule="evenodd" d="M0.026886 1.83916H17.9671V0.920654H0.026886V1.83916Z" fill="#F2F2F2"/>
<path fill-rule="evenodd" clip-rule="evenodd" d="M0.026886 5.51305H17.9671V4.5946H0.026886V5.51305Z" fill="#F2F2F2"/>
<path fill-rule="evenodd" clip-rule="evenodd" d="M0.026886 9.18706H17.9671V8.26855H0.026886V9.18706Z" fill="#F2F2F2"/>
<path fill-rule="evenodd" clip-rule="evenodd" d="M0.026886 7.35008H17.9671V6.43164H0.026886V7.35008Z" fill="#F2F2F2"/>
<path fill-rule="evenodd" clip-rule="evenodd" d="M0.026886 8.26848H17.9671V7.34998H0.026886V8.26848Z" fill="#FF0000"/>
<path fill-rule="evenodd" clip-rule="evenodd" d="M0.026886 11.9425H17.9671V11.0239H0.026886V11.9425Z" fill="#FF0000"/>
<path fill-rule="evenodd" clip-rule="evenodd" d="M0.026886 10.1055H17.9671V9.18701H0.026886V10.1055Z" fill="#FF0000"/>
<path fill-rule="evenodd" clip-rule="evenodd" d="M0.026886 6.43157H17.9671V5.51306H0.026886V6.43157Z" fill="#FF0000"/>
<path fill-rule="evenodd" clip-rule="evenodd" d="M0.026886 0.920644H17.9671V0.00219727H0.026886V0.920644Z" fill="#FF0000"/>
<path fill-rule="evenodd" clip-rule="evenodd" d="M0.026886 4.59453H17.9671V3.67603H0.026886V4.59453Z" fill="#FF0000"/>
<path fill-rule="evenodd" clip-rule="evenodd" d="M0.026886 2.75762H17.9671V1.83911H0.026886V2.75762Z" fill="#FF0000"/>
<path fill-rule="evenodd" clip-rule="evenodd" d="M0.026886 6.43158H9.11659V0.00219727H0.026886V6.43158Z" fill="#0540A8"/>
<path fill-rule="evenodd" clip-rule="evenodd" d="M0.783947 0.277832L0.701422 0.531683H0.434113L0.650592 0.688578L0.568066 0.942429L0.783947 0.785534L1.00043 0.942429L0.917901 0.688578L1.13438 0.531683H0.867071L0.783947 0.277832Z" fill="#F2F2F2"/>
<path fill-rule="evenodd" clip-rule="evenodd" d="M0.783947 1.5636L0.701422 1.81739H0.434113L0.650592 1.97428L0.568066 2.22819L0.783947 2.0713L1.00043 2.22819L0.917901 1.97428L1.13438 1.81739H0.867071L0.783947 1.5636Z" fill="#F2F2F2"/>
<path fill-rule="evenodd" clip-rule="evenodd" d="M0.783947 2.84949L0.701422 3.10334H0.434113L0.650592 3.26024L0.568066 3.51409L0.783947 3.35719L1.00043 3.51409L0.917901 3.26024L1.13438 3.10334H0.867071L0.783947 2.84949Z" fill="#F2F2F2"/>
<path fill-rule="evenodd" clip-rule="evenodd" d="M0.783947 4.13538L0.701422 4.38929H0.434113L0.650592 4.54618L0.568066 4.80003L0.783947 4.64314L1.00043 4.80003L0.917901 4.54618L1.13438 4.38929H0.867071L0.783947 4.13538Z" fill="#F2F2F2"/>
<path fill-rule="evenodd" clip-rule="evenodd" d="M0.867071 5.67512L0.783947 5.42126L0.701422 5.67512H0.434113L0.650592 5.83201L0.568066 6.08586L0.783947 5.92897L1.00043 6.08586L0.917901 5.83201L1.13438 5.67512H0.867071Z" fill="#F2F2F2"/>
<path fill-rule="evenodd" clip-rule="evenodd" d="M1.54164 0.920654L1.45911 1.1745H1.1918L1.40828 1.3314L1.32516 1.58525L1.54164 1.42836L1.75812 1.58525L1.67559 1.3314L1.89147 1.1745H1.62416L1.54164 0.920654Z" fill="#F2F2F2"/>
<path fill-rule="evenodd" clip-rule="evenodd" d="M1.54164 2.20654L1.45911 2.46039H1.1918L1.40828 2.61729L1.32516 2.87114L1.54164 2.71424L1.75812 2.87114L1.67559 2.61729L1.89147 2.46039H1.62416L1.54164 2.20654Z" fill="#F2F2F2"/>
<path fill-rule="evenodd" clip-rule="evenodd" d="M1.54164 3.49243L1.45911 3.74628H1.1918L1.40828 3.90318L1.32516 4.15703L1.54164 4.00019L1.75812 4.15703L1.67559 3.90324L1.89147 3.74628H1.62416L1.54164 3.49243Z" fill="#F2F2F2"/>
<path fill-rule="evenodd" clip-rule="evenodd" d="M1.62416 5.03217L1.54164 4.77832L1.45911 5.03217H1.1918L1.40828 5.18907L1.32516 5.44292L1.54164 5.28602L1.75812 5.44292L1.67559 5.18907L1.89147 5.03217H1.62416Z" fill="#F2F2F2"/>
<path fill-rule="evenodd" clip-rule="evenodd" d="M2.29933 0.277832L2.2168 0.531683H1.94949L2.16537 0.688578L2.08285 0.942429L2.29933 0.785534L2.51581 0.942429L2.43268 0.688578L2.64916 0.531683H2.38185L2.29933 0.277832Z" fill="#F2F2F2"/>
<path fill-rule="evenodd" clip-rule="evenodd" d="M2.29933 1.5636L2.2168 1.81739H1.94949L2.16537 1.97428L2.08285 2.22819L2.29933 2.0713L2.51581 2.22819L2.43268 1.97428L2.64916 1.81739H2.38185L2.29933 1.5636Z" fill="#F2F2F2"/>
<path fill-rule="evenodd" clip-rule="evenodd" d="M2.29933 2.84949L2.2168 3.10334H1.94949L2.16537 3.26024L2.08285 3.51409L2.29933 3.35719L2.51581 3.51409L2.43268 3.26024L2.64916 3.10334H2.38185L2.29933 2.84949Z" fill="#F2F2F2"/>
<path fill-rule="evenodd" clip-rule="evenodd" d="M2.29933 4.13538L2.2168 4.38929H1.94949L2.16537 4.54618L2.08285 4.80003L2.29933 4.64314L2.51581 4.80003L2.43268 4.54618L2.64916 4.38929H2.38185L2.29933 4.13538Z" fill="#F2F2F2"/>
<path fill-rule="evenodd" clip-rule="evenodd" d="M2.38185 5.67512L2.29933 5.42126L2.2168 5.67512H1.94949L2.16537 5.83201L2.08285 6.08586L2.29933 5.92897L2.51581 6.08586L2.43268 5.83201L2.64916 5.67512H2.38185Z" fill="#F2F2F2"/>
<path fill-rule="evenodd" clip-rule="evenodd" d="M3.05638 0.920654L2.97385 1.1745H2.70654L2.92302 1.3314L2.8405 1.58525L3.05638 1.42836L3.27286 1.58525L3.19033 1.3314L3.40681 1.1745H3.1395L3.05638 0.920654Z" fill="#F2F2F2"/>
<path fill-rule="evenodd" clip-rule="evenodd" d="M3.05638 2.20654L2.97385 2.46039H2.70654L2.92302 2.61729L2.8405 2.87114L3.05638 2.71424L3.27286 2.87114L3.19033 2.61729L3.40681 2.46039H3.1395L3.05638 2.20654Z" fill="#F2F2F2"/>
<path fill-rule="evenodd" clip-rule="evenodd" d="M3.05638 3.49243L2.97385 3.74628H2.70654L2.92302 3.90318L2.8405 4.15703L3.05638 4.00019L3.27286 4.15703L3.19033 3.90318L3.40681 3.74628H3.1395L3.05638 3.49243Z" fill="#F2F2F2"/>
<path fill-rule="evenodd" clip-rule="evenodd" d="M3.1395 5.03217L3.05638 4.77832L2.97385 5.03217H2.70654L2.92302 5.18907L2.8405 5.44292L3.05638 5.28602L3.27286 5.44292L3.19033 5.18907L3.40681 5.03217H3.1395Z" fill="#F2F2F2"/>
<path fill-rule="evenodd" clip-rule="evenodd" d="M3.81407 0.277832L3.73154 0.531683H3.46423L3.68071 0.688578L3.59759 0.942429L3.81407 0.785534L4.03055 0.942429L3.94802 0.688578L4.1639 0.531683H3.89659L3.81407 0.277832Z" fill="#F2F2F2"/>
<path fill-rule="evenodd" clip-rule="evenodd" d="M3.81407 1.5636L3.73154 1.81739H3.46423L3.68071 1.97428L3.59759 2.22819L3.81407 2.0713L4.03055 2.22819L3.94802 1.97428L4.1639 1.81739H3.89659L3.81407 1.5636Z" fill="#F2F2F2"/>
<path fill-rule="evenodd" clip-rule="evenodd" d="M3.81407 2.84949L3.73154 3.10334H3.46423L3.68071 3.26024L3.59759 3.51409L3.81407 3.35719L4.03055 3.51409L3.94802 3.26024L4.1639 3.10334H3.89659L3.81407 2.84949Z" fill="#F2F2F2"/>
<path fill-rule="evenodd" clip-rule="evenodd" d="M3.81407 4.13538L3.73154 4.38929H3.46423L3.68071 4.54618L3.59759 4.80003L3.81407 4.64314L4.03055 4.80003L3.94802 4.54618L4.1639 4.38929H3.89659L3.81407 4.13538Z" fill="#F2F2F2"/>
<path fill-rule="evenodd" clip-rule="evenodd" d="M3.89659 5.67512L3.81407 5.42126L3.73154 5.67512H3.46423L3.68071 5.83201L3.59759 6.08586L3.81407 5.92897L4.03055 6.08586L3.94802 5.83201L4.1639 5.67512H3.89659Z" fill="#F2F2F2"/>
<path fill-rule="evenodd" clip-rule="evenodd" d="M4.57173 0.920654L4.4892 1.1745H4.22189L4.43777 1.3314L4.35525 1.58525L4.57173 1.42836L4.78821 1.58525L4.70508 1.3314L4.92156 1.1745H4.65425L4.57173 0.920654Z" fill="#F2F2F2"/>
<path fill-rule="evenodd" clip-rule="evenodd" d="M4.57173 2.20654L4.4892 2.46039H4.22189L4.43777 2.61729L4.35525 2.87114L4.57173 2.71424L4.78821 2.87114L4.70508 2.61729L4.92156 2.46039H4.65425L4.57173 2.20654Z" fill="#F2F2F2"/>
<path fill-rule="evenodd" clip-rule="evenodd" d="M4.57173 3.49243L4.4892 3.74628H4.22189L4.43777 3.90318L4.35525 4.15703L4.57173 4.00019L4.78821 4.15703L4.70508 3.90318L4.92156 3.74628H4.65425L4.57173 3.49243Z" fill="#F2F2F2"/>
<path fill-rule="evenodd" clip-rule="evenodd" d="M4.65425 5.03217L4.57173 4.77832L4.4892 5.03217H4.22189L4.43777 5.18907L4.35525 5.44292L4.57173 5.28602L4.78821 5.44292L4.70508 5.18907L4.92156 5.03217H4.65425Z" fill="#F2F2F2"/>
<path fill-rule="evenodd" clip-rule="evenodd" d="M5.32881 0.277832L5.24628 0.531683H4.97897L5.19545 0.688578L5.11293 0.942429L5.32881 0.785534L5.54529 0.942429L5.46276 0.688578L5.67924 0.531683H5.41193L5.32881 0.277832Z" fill="#F2F2F2"/>
<path fill-rule="evenodd" clip-rule="evenodd" d="M5.32881 1.5636L5.24628 1.81739H4.97897L5.19545 1.97428L5.11293 2.22819L5.32881 2.0713L5.54529 2.22819L5.46276 1.97428L5.67924 1.81739H5.41193L5.32881 1.5636Z" fill="#F2F2F2"/>
<path fill-rule="evenodd" clip-rule="evenodd" d="M5.32881 2.84949L5.24628 3.10334H4.97897L5.19545 3.26024L5.11293 3.51409L5.32881 3.35719L5.54529 3.51409L5.46276 3.26024L5.67924 3.10334H5.41193L5.32881 2.84949Z" fill="#F2F2F2"/>
<path fill-rule="evenodd" clip-rule="evenodd" d="M5.32881 4.13538L5.24628 4.38929H4.97897L5.19545 4.54618L5.11293 4.80003L5.32881 4.64314L5.54529 4.80003L5.46276 4.54618L5.67924 4.38929H5.41193L5.32881 4.13538Z" fill="#F2F2F2"/>
<path fill-rule="evenodd" clip-rule="evenodd" d="M5.41193 5.67512L5.32881 5.42126L5.24628 5.67512H4.97897L5.19545 5.83201L5.11293 6.08586L5.32881 5.92897L5.54529 6.08586L5.46276 5.83201L5.67924 5.67512H5.41193Z" fill="#F2F2F2"/>
<path fill-rule="evenodd" clip-rule="evenodd" d="M6.08647 0.920654L6.00394 1.1745H5.73663L5.95311 1.3314L5.86999 1.58525L6.08647 1.42836L6.30295 1.58525L6.22042 1.3314L6.4363 1.1745H6.16899L6.08647 0.920654Z" fill="#F2F2F2"/>
<path fill-rule="evenodd" clip-rule="evenodd" d="M6.08647 2.20654L6.00394 2.46039H5.73663L5.95311 2.61729L5.86999 2.87114L6.08647 2.71424L6.30295 2.87114L6.22042 2.61729L6.4363 2.46039H6.16899L6.08647 2.20654Z" fill="#F2F2F2"/>
<path fill-rule="evenodd" clip-rule="evenodd" d="M6.08647 3.49243L6.00394 3.74628H5.73663L5.95311 3.90318L5.86999 4.15703L6.08647 4.00019L6.30295 4.15703L6.22042 3.90324L6.4363 3.74628H6.16899L6.08647 3.49243Z" fill="#F2F2F2"/>
<path fill-rule="evenodd" clip-rule="evenodd" d="M6.16899 5.03217L6.08647 4.77832L6.00394 5.03217H5.73663L5.95311 5.18907L5.86999 5.44292L6.08647 5.28602L6.30295 5.44292L6.22042 5.18907L6.4363 5.03217H6.16899Z" fill="#F2F2F2"/>
<path fill-rule="evenodd" clip-rule="evenodd" d="M6.84419 0.277832L6.76166 0.531683H6.49435L6.71023 0.688578L6.62771 0.942429L6.84419 0.785534L7.06067 0.942429L6.97754 0.688578L7.19402 0.531683H6.92671L6.84419 0.277832Z" fill="#F2F2F2"/>
<path fill-rule="evenodd" clip-rule="evenodd" d="M6.84419 1.5636L6.76166 1.81739H6.49435L6.71023 1.97428L6.62771 2.22819L6.84419 2.0713L7.06067 2.22819L6.97754 1.97428L7.19402 1.81739H6.92671L6.84419 1.5636Z" fill="#F2F2F2"/>
<path fill-rule="evenodd" clip-rule="evenodd" d="M6.84419 2.84949L6.76166 3.10334H6.49435L6.71023 3.26024L6.62771 3.51409L6.84419 3.35719L7.06067 3.51409L6.97754 3.26024L7.19402 3.10334H6.92671L6.84419 2.84949Z" fill="#F2F2F2"/>
<path fill-rule="evenodd" clip-rule="evenodd" d="M6.84419 4.13538L6.76166 4.38929H6.49435L6.71023 4.54618L6.62771 4.80003L6.84419 4.64314L7.06067 4.80003L6.97754 4.54618L7.19402 4.38929H6.92671L6.84419 4.13538Z" fill="#F2F2F2"/>
<path fill-rule="evenodd" clip-rule="evenodd" d="M6.92671 5.67512L6.84419 5.42126L6.76166 5.67512H6.49435L6.71023 5.83201L6.62771 6.08586L6.84419 5.92897L7.06067 6.08586L6.97754 5.83201L7.19402 5.67512H6.92671Z" fill="#F2F2F2"/>
<path fill-rule="evenodd" clip-rule="evenodd" d="M7.60124 0.920654L7.51872 1.1745H7.2514L7.46788 1.3314L7.38536 1.58525L7.60124 1.42836L7.81772 1.58525L7.7352 1.3314L7.95168 1.1745H7.68437L7.60124 0.920654Z" fill="#F2F2F2"/>
<path fill-rule="evenodd" clip-rule="evenodd" d="M7.60124 2.20654L7.51872 2.46039H7.2514L7.46788 2.61729L7.38536 2.87114L7.60124 2.71424L7.81772 2.87114L7.7352 2.61729L7.95168 2.46039H7.68437L7.60124 2.20654Z" fill="#F2F2F2"/>
<path fill-rule="evenodd" clip-rule="evenodd" d="M7.60124 3.49243L7.51872 3.74628H7.2514L7.46788 3.90318L7.38536 4.15703L7.60124 4.00019L7.81772 4.15703L7.7352 3.90318L7.95168 3.74628H7.68437L7.60124 3.49243Z" fill="#F2F2F2"/>
<path fill-rule="evenodd" clip-rule="evenodd" d="M7.68437 5.03217L7.60124 4.77832L7.51872 5.03217H7.2514L7.46788 5.18907L7.38536 5.44292L7.60124 5.28602L7.81772 5.44292L7.7352 5.18907L7.95168 5.03217H7.68437Z" fill="#F2F2F2"/>
<path fill-rule="evenodd" clip-rule="evenodd" d="M8.22557 0.688578L8.14245 0.942429L8.35893 0.785534L8.57541 0.942429L8.49288 0.688578L8.70876 0.531683H8.44145L8.35893 0.277832L8.2764 0.531683H8.00909L8.22557 0.688578Z" fill="#F2F2F2"/>
<path fill-rule="evenodd" clip-rule="evenodd" d="M8.35893 1.5636L8.2764 1.81739H8.00909L8.22557 1.97428L8.14245 2.22819L8.35893 2.0713L8.57541 2.22819L8.49288 1.97428L8.70876 1.81739H8.44145L8.35893 1.5636Z" fill="#F2F2F2"/>
<path fill-rule="evenodd" clip-rule="evenodd" d="M8.35893 2.84949L8.2764 3.10334H8.00909L8.22557 3.26024L8.14245 3.51409L8.35893 3.35719L8.57541 3.51409L8.49288 3.26024L8.70876 3.10334H8.44145L8.35893 2.84949Z" fill="#F2F2F2"/>
<path fill-rule="evenodd" clip-rule="evenodd" d="M8.35893 4.13538L8.2764 4.38929H8.00909L8.22557 4.54618L8.14245 4.80003L8.35893 4.64314L8.57541 4.80003L8.49288 4.54618L8.70876 4.38929H8.44145L8.35893 4.13538Z" fill="#F2F2F2"/>
<path fill-rule="evenodd" clip-rule="evenodd" d="M8.44145 5.67512L8.35893 5.42126L8.2764 5.67512H8.00909L8.22557 5.83201L8.14245 6.08586L8.35893 5.92897L8.57541 6.08586L8.49288 5.83201L8.70876 5.67512H8.44145Z" fill="#F2F2F2"/>
</svg>
